# xmcd
#
# Track frame offsets:
#	150
#	23980
#	50258
#	69071
#	92248
#	121215
#	147455
#	174069
#	198638
#	222882
#
# Disc length: 3321 seconds
#
# Revision: 1
# Processed by: cddbd v1.5.2PL0 Copyright (c) Steve Scherf et al.
# Submitted via: EZCDAudioConverter 8.0.2.1
#
DISCID=870cf70a
DTITLE=Mỹ Linh - Tiếng hát Mỹ Linh
DYEAR=1997
DGENRE=
TTITLE0=Trở về dòng sông tuổi thơ
TTITLE1=Chị tôi
TTITLE2=Em hãy ngủ đi
TTITLE3=Đêm thấy ta là thác đổ
TTITLE4=Tóc gió thôi bay
TTITLE5=Trên đỉnh Phù Vân
TTITLE6=Thì thầm mùa xuân
TTITLE7=Hoa sữa
TTITLE8=Hạt mưa mùa xuân
TTITLE9=Hà Nội đêm trở gió
EXTD=
EXTT0=
EXTT1=
EXTT2=
EXTT3=
EXTT4=
EXTT5=
EXTT6=
EXTT7=
EXTT8=
EXTT9=
PLAYORDER=
